<?xml version="1.0" encoding="utf-8"?>
<!-- Generator: Adobe Illustrator 24.0.1, SVG Export Plug-In . SVG Version: 6.00 Build 0)  -->
<svg version="1.1" id="Layer_1" xmlns="http://www.w3.org/2000/svg" xmlns:xlink="http://www.w3.org/1999/xlink" x="0px" y="0px"
	 viewBox="0 0 197.92 153.22" style="enable-background:new 0 0 197.92 153.22;" xml:space="preserve">
<style type="text/css">
	.st0{fill:#56C7DA;}
	.st1{fill:#FFFFFF;}
</style>
<g>
	<polygon class="st0" points="49.73,97.2 46.04,97.2 46.04,96.05 54.78,96.05 54.78,97.2 51.1,97.2 51.1,105.71 49.73,105.71 	"/>
	<path class="st0" d="M56.84,100.81c0,2.07,1.27,3.96,3.66,3.96c2.37,0,3.61-1.8,3.61-3.89c0-2.01-1.27-3.89-3.69-3.89
		C58.16,96.99,56.84,98.76,56.84,100.81 M65.55,100.85c0,2.72-1.85,5.06-5.09,5.06c-3.12,0-5.06-2.23-5.06-5.08c0-2.68,2-5,5.1-5
		C63.59,95.84,65.55,98.16,65.55,100.85"/>
	<path class="st0" d="M68.64,100.81c0,2.07,1.27,3.96,3.66,3.96c2.37,0,3.61-1.8,3.61-3.89c0-2.01-1.27-3.89-3.69-3.89
		C69.95,96.99,68.64,98.76,68.64,100.81 M77.35,100.85c0,2.72-1.85,5.06-5.09,5.06c-3.12,0-5.06-2.23-5.06-5.08c0-2.68,2-5,5.1-5
		C75.39,95.84,77.35,98.16,77.35,100.85"/>
	<path class="st0" d="M81.41,105.71l-3.01-9.66h1.44c0.72,2.37,2.18,7.07,2.38,8.34h0.01c0.27-1.36,1.8-6,2.56-8.34h1.37
		c0.68,2.16,2.27,7.26,2.48,8.32h0.03c0.3-1.46,1.81-6.06,2.53-8.32h1.39l-3.21,9.66h-1.5c-0.69-2.19-2.23-7.06-2.48-8.21H85.4
		c-0.24,1.23-1.73,5.74-2.53,8.21H81.41z"/>
	<path class="st0" d="M95.01,100.81c0,2.07,1.27,3.96,3.66,3.96c2.37,0,3.61-1.8,3.61-3.89c0-2.01-1.27-3.89-3.69-3.89
		C96.32,96.99,95.01,98.76,95.01,100.81 M103.72,100.85c0,2.72-1.85,5.06-5.09,5.06c-3.12,0-5.06-2.23-5.06-5.08c0-2.68,2-5,5.1-5
		C101.76,95.84,103.72,98.16,103.72,100.85"/>
	<path class="st0" d="M106.8,100.81c0,2.07,1.27,3.96,3.66,3.96c2.37,0,3.61-1.8,3.61-3.89c0-2.01-1.27-3.89-3.69-3.89
		C108.12,96.99,106.8,98.76,106.8,100.81 M115.51,100.85c0,2.72-1.85,5.06-5.09,5.06c-3.12,0-5.06-2.23-5.06-5.08c0-2.68,2-5,5.1-5
		C113.55,95.84,115.51,98.16,115.51,100.85"/>
	<path class="st0" d="M126.91,101.55c0-1.81,0.01-3.55,0.07-4.55h-0.01c-0.48,1.46-2.16,5.39-3.54,8.71h-1.18
		c-1.05-2.71-2.89-7.19-3.42-8.71h-0.01c0.08,1.12,0.14,3.16,0.14,4.79v3.92h-1.27v-9.66h1.96c1.33,3.16,2.98,7.12,3.27,8.02h0.01
		c0.45-1.2,2.12-5.06,3.35-8.02h1.97v9.66h-1.33V101.55z"/>
	<path class="st0" d="M132.43,104.61h3.08c1.13,0,2.33-0.35,2.33-1.73c0-1.16-0.91-1.74-2.46-1.74h-2.94V104.61z M135.39,100.04
		c1.4,0,2.07-0.5,2.07-1.44c0-1.12-0.89-1.44-2.01-1.44h-3.01v2.89H135.39z M131.07,96.05h4.65c2.08,0,3.16,0.93,3.16,2.42
		c0,1.21-0.82,1.84-1.57,2.05c0.87,0.24,1.96,0.87,1.96,2.36c0,1.93-1.59,2.83-3.47,2.83h-4.74V96.05z"/>
	<path class="st0" d="M147.24,101.61c-1.18-2.67-1.74-3.93-1.96-4.59h-0.01c-0.2,0.63-0.86,2.29-1.84,4.59H147.24z M143,102.78
		l-1.25,2.93h-1.42l4.15-9.66h1.66l4.33,9.66h-1.5l-1.29-2.93H143z"/>
	<path class="st1" d="M5.52,122.02h3.43c1.52,0,2.38-0.56,2.38-1.79c0-1.15-0.79-1.81-2.38-1.81H5.52V122.02z M5.52,125.6v6.35H0
		v-17.24h10.45c4.27,0,6.52,2.09,6.52,4.96c0,2.21-1.3,3.53-2.99,4.12c0.93,0.39,2.53,1.23,2.53,4.15v0.93c0,0.98,0,2.26,0.25,3.09
		h-5.59c-0.27-0.74-0.34-1.79-0.34-3.58v-0.56c0-1.62-0.52-2.21-2.7-2.21H5.52z"/>
	<polygon class="st1" points="34.77,125.09 25.55,125.09 25.55,127.98 35.85,127.98 35.21,131.96 20.03,131.96 20.03,114.71 
		35.26,114.71 35.26,118.68 25.55,118.68 25.55,121.09 34.77,121.09 	"/>
	<polygon class="st1" points="42.91,118.68 37.19,118.68 37.19,114.71 54.17,114.71 54.17,118.68 48.5,118.68 48.5,131.96 
		42.91,131.96 	"/>
	<rect x="56.61" y="114.71" class="st1" width="5.59" height="17.24"/>
	<g>
		<path class="st1" d="M66.27,131.96v-17.24h6.52c3.83,6.18,5.1,8.41,6.23,10.65h0.1c-0.17-1.64-0.15-4.76-0.15-7.6v-3.04h5.03
			v17.24h-6.16c-1.35-2.4-5.59-9.74-6.62-11.85h-0.07c0.15,1.96,0.17,4.27,0.17,7.65v4.19H66.27z"/>
		<path class="st1" d="M98.27,124.74c-1.13-3.12-1.79-5.08-2.21-6.5h-0.1c-0.37,1.42-1.13,3.88-2.06,6.5H98.27z M92.7,128.74
			l-1.1,3.21h-5.62l6.52-17.24h7.31l6.94,17.24h-6.01l-1.18-3.21H92.7z"/>
		<path class="st1" d="M120.66,118.78c0,0.64,0.42,1.28,1.37,1.96c1.03-0.54,1.42-1.23,1.42-1.86c0-0.81-0.52-1.47-1.47-1.47
			C121.12,117.41,120.66,118.07,120.66,118.78 M123.48,127.96l-3.75-3.14c-0.56,0.39-0.88,1.03-0.88,1.69
			c0,1.18,0.88,2.11,2.48,2.11C122.13,128.62,122.79,128.42,123.48,127.96 M134.96,121.01l-5.32,6.11l5.67,4.83h-7.02l-1.86-1.54
			c-1.5,1.18-3.21,1.89-5.79,1.89c-4.66,0-6.72-2.53-6.72-5.2c0-1.94,1.01-3.16,3.41-4.44c-1.18-1.08-1.57-2.31-1.57-3.48
			c0-2.38,1.91-4.76,6.13-4.76c4.1,0,6.03,2.28,6.03,4.47c0,2.04-1.49,3.02-3.36,3.9l2.08,1.79l2.87-3.56H134.96z"/>
	</g>
	<polygon class="st1" points="158.84,125.09 149.61,125.09 149.61,127.98 159.92,127.98 159.28,131.96 144.09,131.96 144.09,114.71 
		159.33,114.71 159.33,118.68 149.61,118.68 149.61,121.09 158.84,121.09 	"/>
	<g>
		<path class="st1" d="M167.88,131.96v-5.98c0-0.27-0.07-0.42-0.24-0.66l-6.94-10.6h6.57c1.4,2.48,2.85,5.08,3.68,6.92
			c0.83-1.77,2.35-4.32,3.75-6.92h6.03l-7.09,10.77c-0.1,0.15-0.12,0.29-0.12,0.59v5.89H167.88z"/>
	</g>
	<polygon class="st1" points="182.1,114.71 182.1,131.96 197.28,131.96 197.92,127.98 187.62,127.98 187.62,125.09 196.84,125.09 
		196.84,121.09 187.62,121.09 187.62,118.69 197.33,118.69 197.33,114.71 	"/>
	<g>
		<path class="st0" d="M36.54,149.33c0.26,0.8,0.87,1.4,2.44,1.4c1.38,0,1.81-0.43,1.81-1.02c0-0.63-0.38-1.01-2.63-1.4
			c-4.43-0.77-5.07-2.29-5.07-3.87c0-2.37,2.23-3.75,5.51-3.75c3.99,0,5.58,1.84,5.73,3.62h-3.79c-0.14-0.53-0.46-1.14-1.96-1.14
			c-1.06,0-1.55,0.34-1.55,0.9c0,0.56,0.49,0.82,2.37,1.16c4.52,0.8,5.41,2.23,5.41,4.04c0,2.29-1.93,3.94-6,3.94
			c-4.03,0-5.82-1.71-6.17-3.87H36.54z"/>
		<path class="st0" d="M50.73,146.25H53c1.04,0,1.66-0.43,1.66-1.35c0-0.77-0.46-1.31-1.66-1.31h-2.27V146.25z M46.86,140.96h6.74
			c2.88,0,4.89,1.43,4.89,3.91c0,2.54-1.89,4.01-4.88,4.01h-2.88v4.08h-3.87V140.96z"/>
	</g>
	<polygon class="st0" points="60.26,140.96 60.26,152.95 70.82,152.95 71.26,150.19 64.1,150.19 64.1,148.17 70.51,148.17 
		70.51,145.4 64.1,145.4 64.1,143.72 70.85,143.72 70.85,140.96 	"/>
	<g>
		<path class="st0" d="M85.67,148.87c-0.55,2.54-2.58,4.35-6.43,4.35c-4.45,0-6.69-2.85-6.69-6.28c0-3.29,2.2-6.26,6.84-6.26
			c4.08,0,5.99,2.12,6.29,4.28h-3.92c-0.17-0.65-0.66-1.64-2.39-1.64c-1.83,0-2.71,1.43-2.71,3.53c0,1.91,0.72,3.68,2.73,3.68
			c1.45,0,2.05-0.65,2.39-1.67H85.67z"/>
	</g>
	<rect x="87.41" y="140.96" class="st0" width="3.89" height="11.99"/>
	<g>
		<path class="st0" d="M101.22,147.94c-0.78-2.17-1.24-3.53-1.53-4.52h-0.07c-0.26,0.99-0.78,2.69-1.43,4.52H101.22z M97.35,150.72
			l-0.77,2.23h-3.91l4.54-11.99h5.08l4.83,11.99h-4.18l-0.82-2.23H97.35z"/>
	</g>
	<polygon class="st0" points="108.41,140.96 108.41,152.95 118.29,152.95 118.75,150.17 112.32,150.17 112.32,140.96 	"/>
	<rect x="120.16" y="140.96" class="st0" width="3.89" height="11.99"/>
	<g>
		<path class="st0" d="M129.66,149.33c0.26,0.8,0.87,1.4,2.44,1.4c1.38,0,1.81-0.43,1.81-1.02c0-0.63-0.38-1.01-2.63-1.4
			c-4.44-0.77-5.07-2.29-5.07-3.87c0-2.37,2.23-3.75,5.51-3.75c3.99,0,5.58,1.84,5.73,3.62h-3.79c-0.14-0.53-0.46-1.14-1.96-1.14
			c-1.06,0-1.55,0.34-1.55,0.9c0,0.56,0.49,0.82,2.37,1.16c4.52,0.8,5.41,2.23,5.41,4.04c0,2.29-1.93,3.94-6,3.94
			c-4.02,0-5.82-1.71-6.17-3.87H129.66z"/>
	</g>
	<polygon class="st0" points="138.71,140.96 138.71,143.72 142.69,143.72 142.69,152.95 146.58,152.95 146.58,143.72 150.52,143.72 
		150.52,140.96 	"/>
	<path class="st0" d="M155.19,149.33c0.26,0.8,0.87,1.4,2.44,1.4c1.38,0,1.81-0.43,1.81-1.02c0-0.63-0.38-1.01-2.63-1.4
		c-4.44-0.77-5.07-2.29-5.07-3.87c0-2.37,2.23-3.75,5.51-3.75c3.99,0,5.58,1.84,5.73,3.62h-3.79c-0.14-0.53-0.46-1.14-1.96-1.14
		c-1.06,0-1.55,0.34-1.55,0.9c0,0.56,0.49,0.82,2.37,1.16c4.52,0.8,5.41,2.23,5.41,4.04c0,2.29-1.93,3.94-6,3.94
		c-4.02,0-5.82-1.71-6.17-3.87H155.19z"/>
	<path class="st1" d="M169.02,38.16c-2.92-4.45-6.32-8.63-10.11-12.43c-10.04-10.08-22.2-17.48-35.14-21.71
		C115.7,1.4,107.33,0,98.96,0C81.55,0,66.6,10.68,60.28,25.82c-0.74,1.77-1.32,3.62-1.81,5.5c-0.89,3.39-1.4,6.91-1.4,10.57
		c0,3.66,0.52,7.18,1.4,10.57c7.12,5.45,15.09,9.46,23.38,11.81c-6.74-5.15-11.11-13.26-11.11-22.38c0-9.12,4.37-17.23,11.11-22.39
		c4.76-3.64,10.67-5.83,17.11-5.83v-0.04c13.46,0,26.97,4.35,38.67,12.19c1.66,1.1,3.26,2.28,4.83,3.53
		c2.35,1.86,4.61,3.85,6.75,5.99c2.05,2.06,3.96,4.25,5.71,6.55c-1.75,2.3-3.66,4.49-5.71,6.54c-2.14,2.15-4.41,4.14-6.75,6
		c-3.04,10.51-9.76,19.45-18.7,25.33c12.95-4.22,25.1-11.63,35.14-21.7c3.78-3.8,7.18-7.98,10.11-12.43l2.45-3.74L169.02,38.16z"/>
	<path class="st0" d="M137.63,57.97c0.74-1.77,1.32-3.62,1.81-5.51c0.89-3.38,1.4-6.91,1.4-10.56s-0.51-7.18-1.4-10.57
		c-7.12-5.45-15.09-9.47-23.38-11.81c6.74,5.15,11.11,13.26,11.11,22.38s-4.37,17.23-11.11,22.38c-4.75,3.64-10.67,5.83-17.11,5.83
		h-0.07v0.03c-13.43-0.01-26.92-4.35-38.6-12.17c-1.65-1.11-3.26-2.29-4.83-3.53c-2.35-1.86-4.61-3.85-6.76-6
		c-2.05-2.05-3.96-4.24-5.71-6.54c1.75-2.3,3.67-4.49,5.71-6.55c2.15-2.15,4.41-4.14,6.76-5.99c3.03-10.52,9.76-19.46,18.7-25.34
		C61.2,8.24,49.05,15.66,39.01,25.73c-3.79,3.8-7.19,7.97-10.11,12.43l-2.45,3.73l2.45,3.74c2.92,4.45,6.32,8.64,10.11,12.43
		c10.04,10.08,22.2,17.49,35.14,21.7c8.07,2.63,16.44,4.02,24.8,4.02C116.37,83.78,131.32,73.1,137.63,57.97"/>
</g>
</svg>
